<svg xmlns="http://www.w3.org/2000/svg" width="600" height="600" fill="none">
  <path
    d="M557.5 246.146v107.708c0 5.466-4.431 9.896-9.896 9.896-5.958 0-10.104-4.641-10.104-9.896V246.146c0-5.466 4.431-9.896 9.896-9.896 5.958 0 10.104 4.641 10.104 9.896ZM62.5 246.146v107.708c0 5.466-4.431 9.896-9.896 9.896-5.958 0-10.104-4.641-10.104-9.896V246.146c0-5.466 4.431-9.896 9.896-9.896 5.958 0 10.104 4.641 10.104 9.896ZM235.28 88.686 126.431 145.31c-5.181 2.695-11.564.342-13.735-5.08-2.094-5.229.219-10.426 4.525-12.666L226.07 70.94c5.181-2.695 11.564-.343 13.735 5.08 2.094 5.228-.219 10.426-4.525 12.666ZM239.88 523.793c-2.4 5.922-8.854 7.846-13.811 5.267L117.22 472.436a9.881 9.881 0 0 1-4.601-12.478c2.4-5.923 8.854-7.847 13.811-5.268l108.849 56.624a9.88 9.88 0 0 1 4.601 12.479ZM487.38 140.042c-2.4 5.923-8.852 7.847-13.811 5.268L364.72 88.686a9.882 9.882 0 0 1-4.601-12.479c2.4-5.922 8.854-7.846 13.811-5.267l108.849 56.624a9.879 9.879 0 0 1 4.601 12.478ZM482.78 472.436 373.931 529.06c-5.181 2.695-11.563.342-13.735-5.08-2.093-5.229.219-10.426 4.525-12.666L473.57 454.69c5.181-2.695 11.564-.343 13.735 5.08 2.094 5.227-.219 10.426-4.525 12.666ZM300.1 107.5c5.468 0 9.9 4.432 9.9 9.9v8.85c0 13.235-20 13.231-20 0v-8.85c0-5.216 4.106-9.9 10.1-9.9ZM310 473.75v8.85c0 5.467-4.432 9.9-9.9 9.9-5.984 0-10.1-4.675-10.1-9.9v-8.85c0-13.235 20-13.231 20 0ZM139.112 228.862l-21.895-11.467c-4.502-2.359-6.49-7.744-4.583-12.456 2.403-5.942 8.876-7.872 13.842-5.272l21.911 11.47c11.754 6.147 2.414 23.868-9.275 17.725ZM487.366 204.939c1.907 4.712-.08 10.097-4.583 12.456l-21.896 11.467c-11.63 6.112-21.107-11.537-9.274-17.725l21.911-11.47c4.958-2.595 11.435-.678 13.842 5.272ZM148.388 388.862l-21.912 11.47c-5.19 2.718-11.592.357-13.767-5.083-2.083-5.208.212-10.394 4.509-12.644l21.895-11.467c11.713-6.143 21.013 11.586 9.275 17.724ZM487.366 395.061c-2.403 5.942-8.876 7.872-13.842 5.272l-21.911-11.47c-11.712-6.124-2.458-23.877 9.275-17.725l21.895 11.467c4.503 2.359 6.49 7.744 4.583 12.456ZM313.75 512.5h-27.5c-16.542 0-30 13.459-30 30V570c0 16.541 13.458 30 30 30h27.5c16.543 0 30-13.459 30-30v-27.5c0-16.541-13.457-30-30-30ZM313.75 0h-27.5c-16.542 0-30 13.459-30 30v27.5c0 16.541 13.458 30 30 30h27.5c16.543 0 30-13.459 30-30V30c0-16.541-13.457-30-30-30ZM66.25 383.75h-27.5c-16.543 0-30 13.459-30 30v27.5c0 16.541 13.457 30 30 30h27.5c16.543 0 30-13.459 30-30v-27.5c0-16.541-13.457-30-30-30ZM561.25 128.75h-27.5c-16.542 0-30 13.459-30 30v27.5c0 16.541 13.458 30 30 30h27.5c16.543 0 30-13.459 30-30v-27.5c0-16.541-13.457-30-30-30ZM561.25 383.75h-27.5c-16.542 0-30 13.459-30 30v27.5c0 16.541 13.458 30 30 30h27.5c16.543 0 30-13.459 30-30v-27.5c0-16.541-13.457-30-30-30ZM66.25 128.75h-27.5c-16.543 0-30 13.459-30 30v27.5c0 16.541 13.457 30 30 30h27.5c16.543 0 30-13.459 30-30v-27.5c0-16.541-13.457-30-30-30ZM287.391 299.521l-102.5-55.805c-3.331-1.814-7.391.598-7.391 4.391V367.5a10 10 0 0 0 5.219 8.782l99.891 54.385c3.331 1.814 7.391-.597 7.391-4.391V303.912a5.002 5.002 0 0 0-2.61-4.391ZM302.391 282.313l102.044-55.558c3.479-1.894 3.479-6.889 0-8.782l-99.653-54.255a9.992 9.992 0 0 0-9.562 0l-99.653 54.255c-3.478 1.893-3.478 6.888 0 8.782l102.044 55.558a5 5 0 0 0 4.78 0ZM310 303.912v122.364c0 3.794 4.059 6.205 7.391 4.391l99.891-54.385a10.002 10.002 0 0 0 5.218-8.782V248.107c0-3.793-4.059-6.205-7.391-4.391l-102.5 55.805a5 5 0 0 0-2.609 4.391Z"
    fill="#fff"
  />
</svg>
